<svg width="24" height="24" viewBox="0 0 24 24" fill="none" xmlns="http://www.w3.org/2000/svg">
<path d="M12 23C5.92487 23 1 18.0751 1 12C1 5.92487 5.92487 1 12 1C18.0751 1 23 5.92487 23 12C23 18.0751 18.0751 23 12 23Z" fill="#1C1D1F"/>
<mask id="mask0_1185_4358" style="mask-type:luminance" maskUnits="userSpaceOnUse" x="1" y="1" width="22" height="22">
<path d="M12 23C5.92487 23 1 18.0751 1 12C1 5.92487 5.92487 1 12 1C18.0751 1 23 5.92487 23 12C23 18.0751 18.0751 23 12 23Z" fill="white"/>
</mask>
<g mask="url(#mask0_1185_4358)">
<path d="M8 13H16C16.5523 13 17 12.5523 17 12C17 11.4477 16.5523 11 16 11H8C7.44772 11 7 11.4477 7 12C7 12.5523 7.44772 13 8 13Z" fill="white"/>
</g>
</svg>
