<svg width="335" height="60" viewBox="0 0 335 60" fill="none" xmlns="http://www.w3.org/2000/svg">
<path fill-rule="evenodd" clip-rule="evenodd" d="M22.9257 27.5449C24.2284 29.9182 23.361 32.8982 20.9879 34.2012C20.2395 34.6121 19.4305 34.8071 18.633 34.8071C16.9015 34.8071 15.2235 33.8882 14.3315 32.2632L0.605778 7.26205C-0.696926 4.88887 0.17075 1.90878 2.54364 0.605816C4.9173 -0.696918 7.89731 0.170636 9.19996 2.5439L22.9257 27.5449ZM82.663 38.6739L61.0931 2.39761C60.5349 1.45819 59.7095 0.778714 58.7734 0.386898L58.7722 0.386593C58.6339 0.328717 58.4936 0.277173 58.3506 0.232418C58.3211 0.22276 58.2912 0.213849 58.2613 0.204968C58.1489 0.172039 58.0353 0.142804 57.9208 0.117962C57.8671 0.106121 57.813 0.0948605 57.7591 0.0850033C57.6664 0.0680203 57.574 0.054028 57.4804 0.042355C57.4087 0.0334744 57.3371 0.025372 57.2654 0.0196499C57.1866 0.0133175 57.1079 0.00959437 57.0288 0.00706141C56.9449 0.00426905 56.8614 0.00309413 56.7779 0.00465052C56.7094 0.00602381 56.6413 0.00942652 56.5727 0.0135311C56.4785 0.0193142 56.3848 0.027142 56.2911 0.0384793C56.2342 0.0451473 56.1776 0.0534176 56.1206 0.062283C56.0133 0.0788998 55.907 0.098782 55.8009 0.122281C55.7604 0.131543 55.7197 0.14143 55.6789 0.151699C55.5529 0.183239 55.4283 0.219815 55.3048 0.261227L55.2938 0.264984C55.2789 0.270061 55.2639 0.275173 55.2491 0.280423C54.1462 0.66557 53.1748 1.43908 52.5681 2.5439L43.1394 19.7181L33.7105 2.5439C32.4075 0.170636 29.4276 -0.696918 27.0541 0.605816C24.6813 1.90878 23.8136 4.88887 25.1165 7.26205L37.5471 29.9042L25.1165 52.5461C23.8136 54.9193 24.6813 57.8994 27.0541 59.2024C27.8031 59.6133 28.6117 59.8082 29.409 59.8082C31.1401 59.8082 32.8184 58.8891 33.7105 57.2643L43.1394 40.0902L52.5681 57.2643C53.4605 58.8893 55.1384 59.8082 56.8696 59.8082C57.6671 59.8082 58.4761 59.6133 59.2245 59.2024C61.5975 57.8994 62.4652 54.9193 61.1623 52.5461L48.7316 29.9042L57.0416 14.7675L74.2356 43.6846C75.1522 45.2262 76.7816 46.0821 78.4536 46.0821C79.3055 46.0821 80.1691 45.8598 80.9547 45.3927C83.2818 44.009 84.0465 41.0009 82.663 38.6739ZM81.3759 53.9256C81.3759 51.218 83.5708 49.0234 86.2781 49.0234C88.9854 49.0234 91.18 51.218 91.18 53.9256C91.18 56.6329 88.9854 58.8278 86.2781 58.8278C83.5708 58.8278 81.3759 56.6329 81.3759 53.9256Z" fill="#14274E"/>
<path d="M138.236 38.7575L144.759 13.7832H151.946L141.956 49.9192H134.719L126.462 24.1806L118.206 49.9192H110.866L100.826 13.7832H108.267L114.893 38.6552L122.895 13.7832H130.183L138.236 38.7575Z" fill="#1C1D1F"/>
<path fill-rule="evenodd" clip-rule="evenodd" d="M171.568 46.506V46.8116C171.568 47.933 171.653 48.97 171.823 49.9209H178.296C178.16 48.4258 178.092 46.9136 178.092 45.3849V24.8448H171.517V27.9538C171.11 27.003 170.311 26.1276 169.122 25.3291C167.932 24.5308 166.336 24.1309 164.331 24.1309C160.763 24.1309 157.858 25.3887 155.616 27.9027C153.373 30.4178 152.252 33.5437 152.252 37.2805C152.252 41.1208 153.39 44.3063 155.667 46.8372C157.943 49.3687 160.899 50.6342 164.535 50.6342C166.166 50.6342 167.61 50.2522 168.867 49.4872C170.123 48.7231 171.024 47.729 171.568 46.506ZM159.081 37.2802C159.081 35.0379 159.668 33.2625 160.84 31.9545C162.012 30.6468 163.516 29.9922 165.35 29.9922C167.185 29.9922 168.671 30.6468 169.81 31.9545C170.948 33.2625 171.517 35.0379 171.517 37.2802C171.517 39.5231 170.939 41.3325 169.784 42.7085C168.629 44.0848 167.151 44.7727 165.35 44.7727C163.516 44.7727 162.012 44.0848 160.84 42.7085C159.668 41.3325 159.081 39.5231 159.081 37.2802Z" fill="#1C1D1F"/>
<path d="M193.739 59.8078H186.553L192.465 46.7599L181.813 24.8438H189.407L196.084 39.5224L202.251 24.8438H209.488L193.739 59.8078Z" fill="#1C1D1F"/>
<path d="M254.441 49.9192H247.509V24.5882L237.112 49.9192H231.251L220.854 24.7924V49.9192H214.126V13.7832H223.402L234.258 39.8787L244.859 13.7832H254.441V49.9192Z" fill="#1C1D1F"/>
<path fill-rule="evenodd" clip-rule="evenodd" d="M273.299 24.0781C269.527 24.0781 266.393 25.3356 263.895 27.8496C261.398 30.3647 260.149 33.5414 260.149 37.3809C260.149 41.2209 261.398 44.3974 263.895 46.9118C266.393 49.4268 269.527 50.6834 273.299 50.6834C277.07 50.6834 280.205 49.4268 282.702 46.9118C285.199 44.3974 286.448 41.2209 286.448 37.3809C286.448 33.5414 285.199 30.3647 282.702 27.8496C280.205 25.3356 277.07 24.0781 273.299 24.0781ZM273.299 44.5172C271.531 44.5172 270.027 43.8888 268.788 42.6311C267.547 41.3746 266.927 39.624 266.927 37.3817C266.927 35.1391 267.547 33.3896 268.788 32.132C270.027 30.8752 271.531 30.2461 273.299 30.2461C275.065 30.2461 276.569 30.8752 277.809 32.132C279.049 33.3896 279.669 35.1391 279.669 37.3817C279.669 39.624 279.049 41.3746 277.809 42.6311C276.569 43.8888 275.065 44.5172 273.299 44.5172Z" fill="#1C1D1F"/>
<path d="M307.089 24.7405V31.5699C306.409 31.4345 305.73 31.3663 305.051 31.3663C303.114 31.3663 301.55 31.9193 300.362 33.0229C299.172 34.1274 298.578 35.9365 298.578 38.4507V49.9187H291.799V24.8426H298.374V28.563C299.597 25.9472 301.975 24.6387 305.509 24.6387C305.883 24.6387 306.409 24.6729 307.089 24.7405Z" fill="#1C1D1F"/>
<path fill-rule="evenodd" clip-rule="evenodd" d="M334.101 42.7324L328.444 41.0505C327.527 43.5988 325.624 44.873 322.736 44.873C321.036 44.873 319.576 44.3297 318.353 43.2419C317.129 42.1549 316.483 40.7953 316.416 39.1648H334.356L334.407 38.8076C334.407 38.6039 334.415 38.3323 334.432 37.9921C334.449 37.6533 334.458 37.3471 334.458 37.0749C334.458 33.0317 333.362 29.8551 331.17 27.5441C328.979 25.2336 325.947 24.0781 322.073 24.0781C318.743 24.0781 315.855 25.3104 313.409 27.7735C310.962 30.2372 309.739 33.4052 309.739 37.2786C309.739 41.3561 310.996 44.6102 313.511 47.0389C316.025 49.4689 319.083 50.6834 322.685 50.6834C325.641 50.6834 328.113 49.9353 330.1 48.4406C332.088 46.9457 333.421 45.0432 334.101 42.7324ZM327.781 34.5259H316.569C316.637 33.2697 317.18 32.1307 318.199 31.1115C319.219 30.0921 320.544 29.582 322.175 29.582C323.976 29.582 325.343 30.0585 326.278 31.0092C327.212 31.9608 327.713 33.133 327.781 34.5259Z" fill="#1C1D1F"/>
</svg>
